<svg width="247.072266" height="284.281006" viewBox="0 0 247.072 284.281" fill="none" xmlns="http://www.w3.org/2000/svg" xmlns:xlink="http://www.w3.org/1999/xlink">
	<desc>
			Created with Pixso.
	</desc>
	<defs>
		<filter id="filter_18933_481_dd" x="0.000000" y="0.000000" width="247.072266" height="284.281006" filterUnits="userSpaceOnUse" color-interpolation-filters="sRGB">
			<feFlood flood-opacity="0" result="BackgroundImageFix"/>
			<feColorMatrix in="SourceAlpha" type="matrix" values="0 0 0 0 0 0 0 0 0 0 0 0 0 0 0 0 0 0 127 0" result="hardAlpha"/>
			<feMorphology radius="-9.15954" in="" result="BackgroundImageFix"/>
			<feOffset dx="0" dy="15.2659"/>
			<feGaussianBlur stdDeviation="17.0469"/>
			<feComposite in2="hardAlpha" operator="out" k2="-1" k3="1"/>
			<feColorMatrix type="matrix" values="0 0 0 0 0 0 0 0 0 0 0 0 0 0 0 0 0 0 0.3 0"/>
			<feBlend mode="normal" in2="BackgroundImageFix" result="effect_dropShadow_1"/>
			<feBlend mode="normal" in="SourceGraphic" in2="effect_dropShadow_1" result="shape"/>
		</filter>
	</defs>
	<g filter="url(#filter_18933_481_dd)">
		<rect id="Frame 2043683065" rx="19.275000" width="138.632965" height="184.677322" transform="translate(71.330078 23.953979) rotate(10.000000)" fill="#E1FF8F" fill-opacity="1.000000"/>
		<rect id="Frame 2043683065" rx="19.275000" width="138.632965" height="184.677322" transform="translate(71.330078 23.953979) rotate(10.000000)" stroke="#202027" stroke-opacity="1.000000" stroke-width="0.500000"/>
		<rect id="Frame 2043683065" rx="19.275000" width="138.632965" height="184.677322" transform="translate(71.330078 23.953979) rotate(10.000000)" stroke="#000000" stroke-opacity="0.200000" stroke-width="0.500000"/>
	</g>
	<path id="?" d="M118.12 127.85Q115.9 130.13 115.19 134.13L129.42 136.64Q129.65 135.37 130.29 134.35Q130.73 133.64 131.38 133.06Q132.96 131.65 136.09 129.81Q138.94 128.1 140.79 126.65Q142.66 125.19 144.22 122.87Q145.79 120.55 146.37 117.29Q147.02 113.62 145.98 110.51Q145 107.6 142.54 105.19Q137.44 100.21 127.94 98.53Q119.47 97.04 112.91 99.1Q108.78 100.4 105.56 102.88Q103.67 104.33 102.09 106.19L112.88 114.67Q114.3 113.02 116.08 112Q116.91 111.52 117.83 111.18Q118.63 110.88 119.45 110.71Q121.59 110.27 123.9 110.68Q127 111.22 128.7 112.97Q129.65 113.93 129.95 115.07Q130.2 116 130.01 117.05Q129.94 117.46 129.8 117.86Q129.37 119.04 128.32 120.01Q126.95 121.28 124.26 123.04Q120.36 125.55 118.12 127.85ZM114.05 154.5Q115.89 156.01 118.58 156.48Q121.46 156.99 123.81 156.11Q124.73 155.76 125.57 155.2Q127.09 154.19 128 152.78Q128.88 151.42 129.18 149.7Q129.55 147.63 129 145.85Q128.59 144.51 127.67 143.34Q127.18 142.71 126.6 142.18Q124.62 140.4 121.52 139.86Q118.4 139.31 115.93 140.33Q115.24 140.62 114.59 141.03Q113.39 141.8 112.57 142.87Q111.41 144.38 111.03 146.5Q110.72 148.22 111.08 149.8Q111.45 151.43 112.53 152.9Q113.2 153.81 114.05 154.5Z" fill="#FFFFFF" fill-opacity="1.000000" fill-rule="evenodd"/>
	<path id="?" d="M115.19 134.13Q115.9 130.13 118.12 127.85Q120.36 125.55 124.26 123.04Q126.95 121.28 128.32 120.01Q129.72 118.72 130.01 117.05Q130.42 114.72 128.7 112.97Q127 111.22 123.9 110.68Q120.7 110.11 117.83 111.18Q114.97 112.24 112.88 114.67L102.09 106.19Q106.36 101.16 112.91 99.1Q119.47 97.04 127.94 98.53Q137.44 100.21 142.54 105.19Q147.63 110.17 146.37 117.29Q145.79 120.55 144.22 122.87Q142.66 125.19 140.79 126.65Q138.94 128.1 136.09 129.81Q132.96 131.65 131.38 133.06Q129.8 134.48 129.42 136.64L115.19 134.13ZM118.58 156.48Q114.66 155.79 112.53 152.9Q110.41 150.01 111.03 146.5Q111.67 142.89 114.59 141.03Q117.52 139.15 121.52 139.86Q125.53 140.56 127.67 143.34Q129.82 146.09 129.18 149.7Q128.56 153.21 125.57 155.2Q122.58 157.19 118.58 156.48Z" stroke="#202027" stroke-opacity="1.000000" stroke-width="0.634167"/>
</svg>
