<svg width="625.021973" height="528.259277" viewBox="0 0 625.022 528.259" fill="none" xmlns="http://www.w3.org/2000/svg" xmlns:xlink="http://www.w3.org/1999/xlink">
	<desc>
			Created with Pixso.
	</desc>
	<defs/>
	<rect id="Frame 2043683103" rx="18.775000" width="105.960831" height="141.447784" transform="translate(76.437012 0.269287) rotate(10.000000)" fill="#565EEF" fill-opacity="1.000000"/>
	<path id="?" d="M112.85 80Q111.51 81.38 111.08 83.8L119.69 85.32Q119.83 84.55 120.21 83.93Q120.49 83.51 120.88 83.16Q121.83 82.3 123.72 81.19Q125.45 80.15 126.57 79.28Q127.7 78.39 128.64 76.99Q129.6 75.59 129.95 73.61Q130.34 71.39 129.71 69.51Q129.12 67.75 127.63 66.29Q124.54 63.27 118.79 62.26Q113.67 61.36 109.7 62.6Q107.2 63.39 105.25 64.89Q104.11 65.77 103.15 66.89L109.68 72.03Q110.54 71.03 111.62 70.41Q112.12 70.12 112.68 69.91Q113.16 69.73 113.66 69.63Q114.95 69.36 116.35 69.61Q118.23 69.94 119.26 71Q119.83 71.58 120.01 72.27Q120.16 72.83 120.05 73.46Q120 73.72 119.92 73.95Q119.66 74.67 119.03 75.26Q118.2 76.02 116.57 77.09Q114.21 78.61 112.85 80ZM110.39 96.13Q111.5 97.04 113.13 97.33Q114.87 97.63 116.3 97.1Q116.85 96.89 117.36 96.55Q118.28 95.94 118.83 95.08Q119.36 94.26 119.54 93.22Q119.77 91.97 119.43 90.89Q119.19 90.08 118.63 89.37Q118.34 88.99 117.98 88.67Q116.78 87.6 114.91 87.27Q113.02 86.93 111.53 87.55Q111.11 87.73 110.72 87.98Q109.99 88.44 109.49 89.09Q108.79 90 108.56 91.29Q108.38 92.33 108.59 93.28Q108.82 94.27 109.47 95.16Q109.88 95.71 110.39 96.13Z" fill="#FFFFFF" fill-opacity="1.000000" fill-rule="evenodd"/>
	<path id="?" d="M111.08 83.8Q111.51 81.38 112.85 80Q114.21 78.61 116.57 77.09Q118.2 76.02 119.03 75.26Q119.87 74.48 120.05 73.46Q120.3 72.06 119.26 71Q118.23 69.94 116.35 69.61Q114.41 69.27 112.68 69.91Q110.94 70.56 109.68 72.03L103.15 66.89Q105.74 63.85 109.7 62.6Q113.67 61.36 118.79 62.26Q124.54 63.27 127.63 66.29Q130.71 69.3 129.95 73.61Q129.6 75.59 128.64 76.99Q127.7 78.39 126.57 79.28Q125.45 80.15 123.72 81.19Q121.83 82.3 120.88 83.16Q119.92 84.01 119.69 85.32L111.08 83.8ZM113.13 97.33Q110.76 96.91 109.47 95.16Q108.19 93.41 108.56 91.29Q108.95 89.1 110.72 87.98Q112.49 86.84 114.91 87.27Q117.33 87.69 118.63 89.37Q119.93 91.04 119.54 93.22Q119.17 95.35 117.36 96.55Q115.55 97.75 113.13 97.33Z" stroke="#271A58" stroke-opacity="1.000000" stroke-width="0.511614"/>
	<rect id="Frame 2043683103" rx="18.775000" width="105.960831" height="141.447784" transform="translate(76.437012 0.269287) rotate(10.000000)" stroke="#271A58" stroke-opacity="1.000000" stroke-width="0.500000"/>
	<rect id="Frame 2043683100" rx="18.775000" width="105.960831" height="141.447784" transform="translate(187.435059 19.841064) rotate(10.000000)" fill="#009EE4" fill-opacity="1.000000"/>
	<path id="?" d="M223.85 99.57Q222.51 100.95 222.08 103.37L230.69 104.89Q230.82 104.12 231.21 103.51Q231.48 103.08 231.88 102.73Q232.83 101.87 234.72 100.76Q236.45 99.72 237.57 98.85Q238.7 97.96 239.64 96.56Q240.6 95.16 240.94 93.19Q241.34 90.96 240.71 89.08Q240.12 87.32 238.63 85.86Q235.54 82.85 229.79 81.83Q224.67 80.93 220.7 82.18Q218.2 82.96 216.25 84.46Q215.11 85.34 214.15 86.46L220.68 91.6Q221.54 90.6 222.61 89.98Q223.12 89.69 223.68 89.48Q224.16 89.3 224.66 89.2Q225.95 88.93 227.35 89.18Q229.22 89.51 230.25 90.57Q230.83 91.15 231.01 91.84Q231.16 92.4 231.05 93.04Q231 93.29 230.92 93.52Q230.66 94.24 230.02 94.83Q229.19 95.59 227.57 96.66Q225.2 98.18 223.85 99.57ZM221.39 115.7Q222.5 116.61 224.13 116.9Q225.87 117.21 227.29 116.67Q227.85 116.46 228.36 116.12Q229.28 115.51 229.83 114.66Q230.36 113.84 230.54 112.79Q230.76 111.54 230.43 110.46Q230.19 109.66 229.63 108.94Q229.33 108.56 228.98 108.24Q227.78 107.17 225.91 106.84Q224.02 106.51 222.52 107.13Q222.11 107.3 221.72 107.55Q220.99 108.01 220.49 108.66Q219.79 109.58 219.56 110.86Q219.38 111.9 219.59 112.85Q219.81 113.84 220.47 114.73Q220.87 115.28 221.39 115.7Z" fill="#FFFFFF" fill-opacity="1.000000" fill-rule="evenodd"/>
	<path id="?" d="M222.08 103.37Q222.51 100.95 223.85 99.57Q225.2 98.18 227.57 96.66Q229.19 95.59 230.02 94.83Q230.87 94.05 231.05 93.04Q231.3 91.63 230.25 90.57Q229.22 89.51 227.35 89.18Q225.41 88.84 223.68 89.48Q221.94 90.13 220.68 91.6L214.15 86.46Q216.74 83.43 220.7 82.18Q224.67 80.93 229.79 81.83Q235.54 82.85 238.63 85.86Q241.71 88.88 240.94 93.19Q240.6 95.16 239.64 96.56Q238.7 97.96 237.57 98.85Q236.45 99.72 234.72 100.76Q232.83 101.87 231.88 102.73Q230.92 103.58 230.69 104.89L222.08 103.37ZM224.13 116.9Q221.76 116.48 220.47 114.73Q219.18 112.98 219.56 110.86Q219.95 108.67 221.72 107.55Q223.49 106.41 225.91 106.84Q228.33 107.27 229.63 108.94Q230.93 110.61 230.54 112.79Q230.17 114.92 228.36 116.12Q226.55 117.33 224.13 116.9Z" stroke="#271A58" stroke-opacity="1.000000" stroke-width="0.511614"/>
	<rect id="Frame 2043683100" rx="18.775000" width="105.960831" height="141.447784" transform="translate(187.435059 19.841064) rotate(10.000000)" stroke="#271A58" stroke-opacity="1.000000" stroke-width="0.500000"/>
	<rect id="Frame 2043683094" rx="18.775000" width="105.960831" height="141.447784" transform="translate(298.432617 39.412964) rotate(10.000000)" fill="#AD61FF" fill-opacity="1.000000"/>
	<path id="?" d="M334.18 118.55Q332.52 120.26 331.99 123.26L342.66 125.15Q342.83 124.19 343.31 123.43Q343.64 122.9 344.13 122.46Q345.31 121.4 347.66 120.02Q349.8 118.74 351.18 117.65Q352.59 116.56 353.75 114.82Q354.94 113.08 355.37 110.63Q355.86 107.87 355.08 105.54Q354.34 103.36 352.5 101.55Q348.68 97.82 341.55 96.56Q335.19 95.44 330.27 96.99Q327.18 97.96 324.76 99.82Q323.34 100.91 322.16 102.3L330.26 108.67Q331.32 107.43 332.65 106.66Q333.28 106.3 333.96 106.04Q334.56 105.82 335.18 105.69Q336.78 105.36 338.51 105.67Q340.84 106.08 342.12 107.39Q342.83 108.11 343.06 108.96Q343.24 109.66 343.1 110.45Q343.05 110.76 342.94 111.05Q342.62 111.95 341.83 112.67Q340.8 113.62 338.79 114.94Q335.86 116.82 334.18 118.55ZM331.13 138.54Q332.51 139.67 334.53 140.03Q336.68 140.41 338.45 139.74Q339.14 139.48 339.77 139.06Q340.91 138.3 341.59 137.25Q342.25 136.23 342.48 134.94Q342.75 133.39 342.34 132.05Q342.03 131.05 341.35 130.17Q340.98 129.69 340.54 129.3Q339.05 127.97 336.74 127.56Q334.39 127.14 332.54 127.91Q332.02 128.13 331.54 128.44Q330.63 129.01 330.02 129.81Q329.15 130.95 328.86 132.54Q328.64 133.83 328.9 135.01Q329.18 136.24 329.99 137.34Q330.49 138.02 331.13 138.54Z" fill="#FFFFFF" fill-opacity="1.000000" fill-rule="evenodd"/>
	<path id="?" d="M331.99 123.26Q332.52 120.26 334.18 118.55Q335.86 116.82 338.79 114.94Q340.8 113.62 341.83 112.67Q342.88 111.71 343.1 110.45Q343.41 108.71 342.12 107.39Q340.84 106.08 338.51 105.67Q336.11 105.25 333.96 106.04Q331.82 106.84 330.26 108.67L322.16 102.3Q325.36 98.54 330.27 96.99Q335.19 95.44 341.55 96.56Q348.68 97.82 352.5 101.55Q356.32 105.29 355.37 110.63Q354.94 113.08 353.75 114.82Q352.59 116.56 351.18 117.65Q349.8 118.74 347.66 120.02Q345.31 121.4 344.13 122.46Q342.95 123.52 342.66 125.15L331.99 123.26ZM334.53 140.03Q331.58 139.51 329.99 137.34Q328.4 135.17 328.86 132.54Q329.34 129.83 331.54 128.44Q333.73 127.03 336.74 127.56Q339.74 128.09 341.35 130.17Q342.96 132.23 342.48 134.94Q342.01 137.57 339.77 139.06Q337.53 140.56 334.53 140.03Z" stroke="#271A58" stroke-opacity="1.000000" stroke-width="0.511614"/>
	<rect id="Frame 2043683094" rx="18.775000" width="105.960831" height="141.447784" transform="translate(298.432617 39.412964) rotate(10.000000)" stroke="#271A58" stroke-opacity="1.000000" stroke-width="0.500000"/>
	<rect id="Frame 2043683095" rx="18.775000" width="105.960831" height="141.447784" transform="translate(409.430664 58.984863) rotate(10.000000)" fill="#F25050" fill-opacity="1.000000"/>
	<path id="?" d="M445.18 138.12Q443.52 139.84 442.98 142.84L453.66 144.72Q453.82 143.76 454.31 143Q454.64 142.47 455.13 142.03Q456.31 140.97 458.65 139.59Q460.8 138.31 462.18 137.23Q463.58 136.13 464.75 134.39Q465.94 132.65 466.37 130.21Q466.86 127.45 466.07 125.11Q465.34 122.93 463.49 121.13Q459.67 117.39 452.54 116.13Q446.19 115.01 441.27 116.56Q438.17 117.54 435.76 119.39Q434.34 120.48 433.16 121.87L441.25 128.24Q442.31 127 443.65 126.23Q444.27 125.87 444.96 125.62Q445.56 125.39 446.18 125.27Q447.78 124.94 449.51 125.24Q451.84 125.65 453.12 126.96Q453.83 127.69 454.05 128.54Q454.24 129.23 454.1 130.02Q454.04 130.33 453.94 130.63Q453.62 131.52 452.83 132.24Q451.8 133.19 449.79 134.51Q446.86 136.39 445.18 138.12ZM442.13 158.11Q443.51 159.24 445.53 159.6Q447.68 159.98 449.45 159.32Q450.14 159.06 450.77 158.64Q451.91 157.88 452.59 156.82Q453.25 155.8 453.48 154.51Q453.75 152.96 453.34 151.62Q453.03 150.62 452.34 149.74Q451.98 149.26 451.54 148.87Q450.05 147.54 447.73 147.13Q445.39 146.72 443.53 147.49Q443.02 147.7 442.54 148.01Q441.63 148.58 441.02 149.39Q440.14 150.52 439.86 152.11Q439.63 153.4 439.9 154.58Q440.18 155.81 440.99 156.91Q441.49 157.59 442.13 158.11Z" fill="#FFFFFF" fill-opacity="1.000000" fill-rule="evenodd"/>
	<path id="?" d="M442.98 142.84Q443.52 139.84 445.18 138.12Q446.86 136.39 449.79 134.51Q451.8 133.19 452.83 132.24Q453.88 131.28 454.1 130.02Q454.41 128.28 453.12 126.96Q451.84 125.65 449.51 125.24Q447.11 124.82 444.96 125.62Q442.81 126.41 441.25 128.24L433.16 121.87Q436.36 118.11 441.27 116.56Q446.19 115.01 452.54 116.13Q459.67 117.39 463.49 121.13Q467.32 124.86 466.37 130.21Q465.94 132.65 464.75 134.39Q463.58 136.13 462.18 137.23Q460.8 138.31 458.65 139.59Q456.31 140.97 455.13 142.03Q453.94 143.09 453.66 144.72L442.98 142.84ZM445.53 159.6Q442.58 159.08 440.99 156.91Q439.4 154.74 439.86 152.11Q440.34 149.4 442.54 148.01Q444.73 146.6 447.73 147.13Q450.73 147.66 452.34 149.74Q453.95 151.8 453.48 154.51Q453.01 157.14 450.77 158.64Q448.53 160.13 445.53 159.6Z" stroke="#271A58" stroke-opacity="1.000000" stroke-width="0.511614"/>
	<rect id="Frame 2043683095" rx="18.775000" width="105.960831" height="141.447784" transform="translate(409.430664 58.984863) rotate(10.000000)" stroke="#271A58" stroke-opacity="1.000000" stroke-width="0.500000"/>
	<rect id="Frame 2043683101" rx="18.775000" width="105.960831" height="141.447784" transform="translate(520.428711 78.556641) rotate(10.000000)" fill="#009EE4" fill-opacity="1.000000"/>
	<path id="?" d="M556.84 158.29Q555.5 159.67 555.07 162.09L563.68 163.61Q563.82 162.84 564.21 162.22Q564.48 161.79 564.87 161.44Q565.82 160.59 567.71 159.47Q569.44 158.44 570.56 157.56Q571.69 156.68 572.63 155.28Q573.59 153.87 573.94 151.9Q574.33 149.67 573.7 147.79Q573.11 146.03 571.62 144.58Q568.54 141.56 562.78 140.55Q557.66 139.64 553.69 140.89Q551.19 141.68 549.24 143.18Q548.1 144.06 547.15 145.18L553.68 150.31Q554.53 149.31 555.61 148.7Q556.11 148.41 556.67 148.2Q557.15 148.02 557.65 147.92Q558.94 147.65 560.34 147.9Q562.22 148.23 563.25 149.29Q563.82 149.87 564 150.56Q564.15 151.12 564.04 151.75Q564 152 563.91 152.24Q563.65 152.96 563.02 153.54Q562.19 154.31 560.56 155.38Q558.2 156.89 556.84 158.29ZM554.38 174.42Q555.5 175.33 557.12 175.61Q558.86 175.92 560.29 175.39Q560.84 175.18 561.35 174.84Q562.27 174.22 562.82 173.37Q563.35 172.55 563.54 171.51Q563.76 170.26 563.43 169.18Q563.18 168.37 562.62 167.66Q562.33 167.28 561.97 166.96Q560.77 165.88 558.9 165.55Q557.01 165.22 555.52 165.84Q555.1 166.02 554.71 166.26Q553.98 166.73 553.48 167.37Q552.78 168.29 552.55 169.57Q552.37 170.62 552.58 171.57Q552.81 172.56 553.46 173.45Q553.87 174 554.38 174.42Z" fill="#FFFFFF" fill-opacity="1.000000" fill-rule="evenodd"/>
	<path id="?" d="M555.07 162.09Q555.5 159.67 556.84 158.29Q558.2 156.89 560.56 155.38Q562.19 154.31 563.02 153.54Q563.86 152.77 564.04 151.75Q564.29 150.35 563.25 149.29Q562.22 148.23 560.34 147.9Q558.4 147.56 556.67 148.2Q554.94 148.84 553.68 150.31L547.15 145.18Q549.73 142.14 553.69 140.89Q557.66 139.64 562.78 140.55Q568.54 141.56 571.62 144.58Q574.7 147.59 573.94 151.9Q573.59 153.87 572.63 155.28Q571.69 156.68 570.56 157.56Q569.44 158.44 567.71 159.47Q565.82 160.59 564.87 161.44Q563.91 162.3 563.68 163.61L555.07 162.09ZM557.12 175.61Q554.75 175.2 553.46 173.45Q552.18 171.7 552.55 169.57Q552.94 167.39 554.71 166.26Q556.48 165.13 558.9 165.55Q561.33 165.98 562.62 167.66Q563.92 169.33 563.54 171.51Q563.16 173.63 561.35 174.84Q559.54 176.04 557.12 175.61Z" stroke="#271A58" stroke-opacity="1.000000" stroke-width="0.511614"/>
	<rect id="Frame 2043683101" rx="18.775000" width="105.960831" height="141.447784" transform="translate(520.428711 78.556641) rotate(10.000000)" stroke="#271A58" stroke-opacity="1.000000" stroke-width="0.500000"/>
	<rect id="Frame 2043683104" rx="18.775000" width="105.960831" height="141.447784" transform="translate(50.746582 145.969238) rotate(10.000000)" fill="#1FA46C" fill-opacity="1.000000"/>
	<path id="?" d="M87.16 225.7Q85.82 227.08 85.39 229.5L94 231.02Q94.14 230.25 94.52 229.63Q94.79 229.21 95.19 228.86Q96.14 228 98.03 226.89Q99.76 225.85 100.88 224.98Q102.01 224.09 102.95 222.69Q103.91 221.29 104.26 219.31Q104.65 217.09 104.02 215.21Q103.43 213.45 101.94 211.99Q98.85 208.97 93.1 207.96Q87.98 207.06 84.01 208.3Q81.51 209.09 79.56 210.59Q78.42 211.47 77.46 212.59L83.99 217.73Q84.85 216.73 85.92 216.11Q86.43 215.82 86.99 215.61Q87.47 215.43 87.97 215.33Q89.26 215.06 90.66 215.31Q92.53 215.64 93.56 216.7Q94.14 217.28 94.32 217.97Q94.47 218.53 94.36 219.16Q94.31 219.42 94.23 219.65Q93.97 220.37 93.33 220.96Q92.5 221.72 90.88 222.79Q88.52 224.31 87.16 225.7ZM84.7 241.83Q85.81 242.74 87.44 243.03Q89.18 243.33 90.6 242.8Q91.16 242.59 91.67 242.25Q92.59 241.64 93.14 240.78Q93.67 239.96 93.85 238.92Q94.08 237.67 93.74 236.59Q93.5 235.78 92.94 235.07Q92.65 234.69 92.29 234.37Q91.09 233.3 89.22 232.97Q87.33 232.63 85.83 233.25Q85.42 233.43 85.03 233.68Q84.3 234.14 83.8 234.79Q83.1 235.7 82.87 236.99Q82.69 238.03 82.9 238.98Q83.13 239.97 83.78 240.86Q84.19 241.41 84.7 241.83Z" fill="#FFFFFF" fill-opacity="1.000000" fill-rule="evenodd"/>
	<path id="?" d="M85.39 229.5Q85.82 227.08 87.16 225.7Q88.52 224.31 90.88 222.79Q92.5 221.72 93.33 220.96Q94.18 220.18 94.36 219.16Q94.61 217.76 93.56 216.7Q92.53 215.64 90.66 215.31Q88.72 214.97 86.99 215.61Q85.25 216.26 83.99 217.73L77.46 212.59Q80.05 209.55 84.01 208.3Q87.98 207.06 93.1 207.96Q98.85 208.97 101.94 211.99Q105.02 215 104.26 219.31Q103.91 221.29 102.95 222.69Q102.01 224.09 100.88 224.98Q99.76 225.85 98.03 226.89Q96.14 228 95.19 228.86Q94.23 229.71 94 231.02L85.39 229.5ZM87.44 243.03Q85.07 242.61 83.78 240.86Q82.5 239.11 82.87 236.99Q83.26 234.8 85.03 233.68Q86.8 232.54 89.22 232.97Q91.64 233.39 92.94 235.07Q94.24 236.74 93.85 238.92Q93.48 241.05 91.67 242.25Q89.86 243.45 87.44 243.03Z" stroke="#271A58" stroke-opacity="1.000000" stroke-width="0.511614"/>
	<rect id="Frame 2043683104" rx="18.775000" width="105.960831" height="141.447784" transform="translate(50.746582 145.969238) rotate(10.000000)" stroke="#271A58" stroke-opacity="1.000000" stroke-width="0.500000"/>
	<rect id="Frame 2043683096" rx="18.775000" width="105.960831" height="141.447784" transform="translate(161.744141 165.541016) rotate(10.000000)" fill="#F25050" fill-opacity="1.000000"/>
	<path id="?" d="M197.49 244.68Q195.83 246.39 195.3 249.39L205.97 251.27Q206.14 250.32 206.62 249.55Q206.95 249.02 207.44 248.59Q208.62 247.53 210.97 246.15Q213.11 244.87 214.5 243.78Q215.9 242.69 217.07 240.94Q218.25 239.21 218.68 236.76Q219.17 234 218.39 231.67Q217.65 229.49 215.81 227.68Q211.99 223.95 204.86 222.69Q198.51 221.57 193.58 223.11Q190.49 224.09 188.07 225.95Q186.65 227.04 185.47 228.43L193.57 234.79Q194.63 233.55 195.96 232.79Q196.59 232.43 197.28 232.17Q197.87 231.95 198.49 231.82Q200.09 231.49 201.83 231.8Q204.15 232.21 205.43 233.52Q206.14 234.24 206.37 235.09Q206.55 235.79 206.41 236.58Q206.36 236.89 206.25 237.18Q205.93 238.07 205.14 238.8Q204.12 239.75 202.1 241.07Q199.17 242.95 197.49 244.68ZM194.44 264.67Q195.82 265.8 197.84 266.15Q200 266.54 201.76 265.87Q202.45 265.61 203.08 265.19Q204.22 264.43 204.9 263.38Q205.56 262.36 205.79 261.07Q206.06 259.52 205.65 258.18Q205.35 257.18 204.66 256.29Q204.29 255.82 203.85 255.43Q202.37 254.09 200.05 253.69Q197.7 253.27 195.85 254.04Q195.33 254.26 194.85 254.56Q193.94 255.14 193.33 255.94Q192.46 257.08 192.18 258.67Q191.95 259.96 192.21 261.14Q192.49 262.36 193.3 263.47Q193.8 264.15 194.44 264.67Z" fill="#FFFFFF" fill-opacity="1.000000" fill-rule="evenodd"/>
	<path id="?" d="M195.3 249.39Q195.83 246.39 197.49 244.68Q199.17 242.95 202.1 241.07Q204.12 239.75 205.14 238.8Q206.19 237.83 206.41 236.58Q206.72 234.83 205.43 233.52Q204.15 232.21 201.83 231.8Q199.43 231.37 197.28 232.17Q195.13 232.97 193.57 234.79L185.47 228.43Q188.67 224.66 193.58 223.11Q198.51 221.57 204.86 222.69Q211.99 223.95 215.81 227.68Q219.63 231.42 218.68 236.76Q218.25 239.21 217.07 240.94Q215.9 242.69 214.5 243.78Q213.11 244.87 210.97 246.15Q208.62 247.53 207.44 248.59Q206.26 249.65 205.97 251.27L195.3 249.39ZM197.84 266.15Q194.9 265.64 193.3 263.47Q191.71 261.3 192.18 258.67Q192.66 255.96 194.85 254.56Q197.05 253.16 200.05 253.69Q203.05 254.21 204.66 256.29Q206.27 258.36 205.79 261.07Q205.32 263.7 203.08 265.19Q200.84 266.68 197.84 266.15Z" stroke="#271A58" stroke-opacity="1.000000" stroke-width="0.511614"/>
	<rect id="Frame 2043683096" rx="18.775000" width="105.960831" height="141.447784" transform="translate(161.744141 165.541016) rotate(10.000000)" stroke="#271A58" stroke-opacity="1.000000" stroke-width="0.500000"/>
	<rect id="Frame 2043683112" rx="18.775000" width="105.960831" height="141.447784" transform="translate(272.742188 185.113037) rotate(10.000000)" fill="#009EE4" fill-opacity="1.000000"/>
	<path id="?" d="M309.16 264.84Q307.82 266.23 307.39 268.65L316 270.17Q316.13 269.39 316.52 268.78Q316.79 268.35 317.18 268Q318.14 267.15 320.03 266.03Q321.76 265 322.87 264.12Q324.01 263.24 324.95 261.83Q325.9 260.43 326.25 258.46Q326.65 256.23 326.01 254.35Q325.42 252.59 323.93 251.13Q320.85 248.12 315.1 247.1Q309.97 246.2 306 247.45Q303.51 248.24 301.56 249.74Q300.41 250.61 299.46 251.74L305.99 256.87Q306.85 255.87 307.92 255.25Q308.43 254.96 308.98 254.76Q309.47 254.58 309.96 254.47Q311.26 254.21 312.65 254.45Q314.53 254.78 315.56 255.84Q316.13 256.43 316.32 257.11Q316.47 257.67 316.35 258.31Q316.31 258.56 316.22 258.8Q315.96 259.52 315.33 260.1Q314.5 260.87 312.87 261.93Q310.51 263.45 309.16 264.84ZM306.69 280.97Q307.81 281.88 309.44 282.17Q311.18 282.48 312.6 281.94Q313.16 281.73 313.67 281.39Q314.59 280.78 315.14 279.93Q315.67 279.11 315.85 278.07Q316.07 276.82 315.74 275.73Q315.49 274.93 314.94 274.22Q314.64 273.83 314.29 273.52Q313.09 272.44 311.22 272.11Q309.33 271.78 307.83 272.4Q307.41 272.57 307.02 272.82Q306.29 273.29 305.8 273.93Q305.09 274.85 304.87 276.13Q304.68 277.17 304.9 278.12Q305.12 279.11 305.78 280Q306.18 280.55 306.69 280.97Z" fill="#FFFFFF" fill-opacity="1.000000" fill-rule="evenodd"/>
	<path id="?" d="M307.39 268.65Q307.82 266.23 309.16 264.84Q310.51 263.45 312.87 261.93Q314.5 260.87 315.33 260.1Q316.17 259.32 316.35 258.31Q316.6 256.9 315.56 255.84Q314.53 254.78 312.65 254.45Q310.72 254.11 308.98 254.76Q307.25 255.4 305.99 256.87L299.46 251.74Q302.04 248.7 306 247.45Q309.97 246.2 315.1 247.1Q320.85 248.12 323.93 251.13Q327.01 254.15 326.25 258.46Q325.9 260.43 324.95 261.83Q324.01 263.24 322.87 264.12Q321.76 265 320.03 266.03Q318.14 267.15 317.18 268Q316.23 268.85 316 270.17L307.39 268.65ZM309.44 282.17Q307.06 281.75 305.78 280Q304.49 278.25 304.87 276.13Q305.25 273.95 307.02 272.82Q308.8 271.68 311.22 272.11Q313.64 272.54 314.94 274.22Q316.24 275.88 315.85 278.07Q315.47 280.19 313.67 281.39Q311.86 282.6 309.44 282.17Z" stroke="#271A58" stroke-opacity="1.000000" stroke-width="0.511614"/>
	<rect id="Frame 2043683112" rx="18.775000" width="105.960831" height="141.447784" transform="translate(272.742188 185.113037) rotate(10.000000)" stroke="#271A58" stroke-opacity="1.000000" stroke-width="0.500000"/>
	<rect id="Frame 2043683098" rx="18.775000" width="105.960831" height="141.447784" transform="translate(383.739746 204.684937) rotate(10.000000)" fill="#99D100" fill-opacity="1.000000"/>
	<path id="?" d="M419.49 283.82Q417.83 285.54 417.29 288.54L427.96 290.42Q428.13 289.46 428.61 288.7Q428.95 288.17 429.44 287.73Q430.62 286.67 432.96 285.29Q435.11 284.01 436.49 282.93Q437.89 281.83 439.06 280.09Q440.25 278.35 440.68 275.91Q441.17 273.15 440.38 270.81Q439.65 268.63 437.8 266.83Q433.98 263.09 426.85 261.83Q420.5 260.71 415.58 262.26Q412.48 263.24 410.07 265.09Q408.65 266.18 407.47 267.57L415.56 273.94Q416.62 272.7 417.96 271.93Q418.58 271.57 419.27 271.32Q419.87 271.09 420.49 270.97Q422.09 270.64 423.82 270.94Q426.15 271.35 427.43 272.66Q428.14 273.39 428.36 274.24Q428.55 274.93 428.41 275.72Q428.35 276.03 428.25 276.33Q427.93 277.22 427.14 277.94Q426.11 278.89 424.1 280.21Q421.17 282.09 419.49 283.82ZM416.43 303.81Q417.82 304.94 419.83 305.3Q421.99 305.68 423.76 305.01Q424.45 304.76 425.08 304.34Q426.22 303.58 426.9 302.52Q427.56 301.5 427.78 300.21Q428.06 298.66 427.65 297.32Q427.34 296.32 426.65 295.44Q426.29 294.96 425.85 294.57Q424.36 293.24 422.04 292.83Q419.7 292.42 417.84 293.19Q417.33 293.4 416.85 293.71Q415.94 294.28 415.32 295.09Q414.45 296.22 414.17 297.81Q413.94 299.1 414.21 300.28Q414.49 301.51 415.3 302.61Q415.8 303.29 416.43 303.81Z" fill="#FFFFFF" fill-opacity="1.000000" fill-rule="evenodd"/>
	<path id="?" d="M417.29 288.54Q417.83 285.54 419.49 283.82Q421.17 282.09 424.1 280.21Q426.11 278.89 427.14 277.94Q428.19 276.98 428.41 275.72Q428.72 273.98 427.43 272.66Q426.15 271.35 423.82 270.94Q421.42 270.52 419.27 271.32Q417.12 272.11 415.56 273.94L407.47 267.57Q410.67 263.81 415.58 262.26Q420.5 260.71 426.85 261.83Q433.98 263.09 437.8 266.83Q441.62 270.56 440.68 275.91Q440.25 278.35 439.06 280.09Q437.89 281.83 436.49 282.93Q435.11 284.01 432.96 285.29Q430.62 286.67 429.44 287.73Q428.25 288.79 427.96 290.42L417.29 288.54ZM419.83 305.3Q416.89 304.78 415.3 302.61Q413.71 300.44 414.17 297.81Q414.65 295.1 416.85 293.71Q419.04 292.3 422.04 292.83Q425.04 293.36 426.65 295.44Q428.26 297.5 427.78 300.21Q427.32 302.84 425.08 304.34Q422.83 305.83 419.83 305.3Z" stroke="#271A58" stroke-opacity="1.000000" stroke-width="0.511614"/>
	<rect id="Frame 2043683098" rx="18.775000" width="105.960831" height="141.447784" transform="translate(383.739746 204.684937) rotate(10.000000)" stroke="#271A58" stroke-opacity="1.000000" stroke-width="0.500000"/>
	<rect id="Frame 2043683102" rx="18.775000" width="105.960831" height="141.447784" transform="translate(494.737793 224.256836) rotate(10.000000)" fill="#FFC700" fill-opacity="1.000000"/>
	<path id="?" d="M531.15 303.99Q529.81 305.37 529.38 307.79L537.99 309.31Q538.13 308.54 538.52 307.92Q538.78 307.49 539.18 307.14Q540.13 306.29 542.02 305.17Q543.75 304.14 544.87 303.26Q546 302.38 546.94 300.98Q547.9 299.57 548.25 297.6Q548.64 295.38 548.01 293.49Q547.42 291.73 545.93 290.28Q542.84 287.26 537.09 286.25Q531.97 285.34 528 286.59Q525.5 287.38 523.55 288.88Q522.41 289.76 521.45 290.88L527.99 296.01Q528.84 295.01 529.92 294.4Q530.42 294.1 530.98 293.9Q531.46 293.72 531.96 293.62Q533.25 293.35 534.65 293.6Q536.53 293.93 537.56 294.99Q538.13 295.57 538.31 296.26Q538.46 296.82 538.35 297.45Q538.3 297.7 538.22 297.94Q537.96 298.66 537.33 299.24Q536.5 300.01 534.87 301.07Q532.51 302.59 531.15 303.99ZM528.69 320.12Q529.8 321.03 531.43 321.31Q533.17 321.62 534.59 321.09Q535.15 320.88 535.66 320.54Q536.58 319.92 537.13 319.07Q537.66 318.25 537.84 317.21Q538.07 315.96 537.74 314.88Q537.49 314.07 536.93 313.36Q536.64 312.98 536.28 312.66Q535.08 311.58 533.21 311.25Q531.32 310.92 529.83 311.54Q529.41 311.72 529.02 311.96Q528.29 312.43 527.79 313.07Q527.09 313.99 526.86 315.27Q526.68 316.32 526.89 317.27Q527.12 318.26 527.77 319.15Q528.18 319.7 528.69 320.12Z" fill="#FFFFFF" fill-opacity="1.000000" fill-rule="evenodd"/>
	<path id="?" d="M529.38 307.79Q529.81 305.37 531.15 303.99Q532.51 302.59 534.87 301.07Q536.5 300.01 537.33 299.24Q538.17 298.47 538.35 297.45Q538.6 296.05 537.56 294.99Q536.53 293.93 534.65 293.6Q532.71 293.26 530.98 293.9Q529.24 294.54 527.99 296.01L521.45 290.88Q524.04 287.84 528 286.59Q531.97 285.34 537.09 286.25Q542.84 287.26 545.93 290.28Q549.01 293.29 548.25 297.6Q547.9 299.57 546.94 300.98Q546 302.38 544.87 303.26Q543.75 304.14 542.02 305.17Q540.13 306.29 539.18 307.14Q538.22 308 537.99 309.31L529.38 307.79ZM531.43 321.31Q529.06 320.9 527.77 319.15Q526.49 317.4 526.86 315.27Q527.25 313.09 529.02 311.96Q530.79 310.83 533.21 311.25Q535.63 311.68 536.93 313.36Q538.23 315.03 537.84 317.21Q537.47 319.33 535.66 320.54Q533.85 321.74 531.43 321.31Z" stroke="#271A58" stroke-opacity="1.000000" stroke-width="0.511614"/>
	<rect id="Frame 2043683102" rx="18.775000" width="105.960831" height="141.447784" transform="translate(494.737793 224.256836) rotate(10.000000)" stroke="#271A58" stroke-opacity="1.000000" stroke-width="0.500000"/>
	<rect id="Frame 2043683109" rx="18.775000" width="105.960831" height="141.447784" transform="translate(25.055664 291.669312) rotate(10.000000)" fill="#009EE4" fill-opacity="1.000000"/>
	<path id="?" d="M61.47 371.4Q60.13 372.78 59.7 375.2L68.31 376.72Q68.44 375.95 68.83 375.33Q69.1 374.91 69.5 374.56Q70.45 373.7 72.34 372.59Q74.07 371.55 75.19 370.68Q76.32 369.79 77.26 368.39Q78.22 366.99 78.57 365.01Q78.96 362.79 78.33 360.91Q77.74 359.15 76.25 357.69Q73.16 354.67 67.41 353.66Q62.29 352.76 58.32 354Q55.82 354.79 53.87 356.29Q52.73 357.17 51.77 358.29L58.3 363.43Q59.16 362.43 60.23 361.81Q60.74 361.52 61.3 361.31Q61.78 361.13 62.28 361.03Q63.57 360.76 64.97 361.01Q66.84 361.34 67.87 362.4Q68.45 362.98 68.63 363.67Q68.78 364.23 68.67 364.86Q68.62 365.12 68.54 365.35Q68.28 366.07 67.64 366.66Q66.81 367.42 65.19 368.49Q62.82 370.01 61.47 371.4ZM59.01 387.53Q60.12 388.44 61.75 388.73Q63.49 389.03 64.91 388.5Q65.47 388.29 65.98 387.95Q66.9 387.34 67.45 386.48Q67.98 385.66 68.16 384.62Q68.38 383.37 68.05 382.29Q67.81 381.48 67.25 380.77Q66.95 380.39 66.6 380.07Q65.4 379 63.53 378.67Q61.64 378.33 60.14 378.95Q59.73 379.13 59.34 379.38Q58.61 379.84 58.11 380.49Q57.41 381.4 57.18 382.69Q57 383.73 57.21 384.68Q57.43 385.67 58.09 386.56Q58.49 387.11 59.01 387.53Z" fill="#FFFFFF" fill-opacity="1.000000" fill-rule="evenodd"/>
	<path id="?" d="M59.7 375.2Q60.13 372.78 61.47 371.4Q62.82 370.01 65.19 368.49Q66.81 367.42 67.64 366.66Q68.49 365.88 68.67 364.86Q68.92 363.46 67.87 362.4Q66.84 361.34 64.97 361.01Q63.03 360.67 61.3 361.31Q59.56 361.96 58.3 363.43L51.77 358.29Q54.36 355.25 58.32 354Q62.29 352.76 67.41 353.66Q73.16 354.67 76.25 357.69Q79.33 360.7 78.57 365.01Q78.22 366.99 77.26 368.39Q76.32 369.79 75.19 370.68Q74.07 371.55 72.34 372.59Q70.45 373.7 69.5 374.56Q68.54 375.41 68.31 376.72L59.7 375.2ZM61.75 388.73Q59.38 388.31 58.09 386.56Q56.8 384.81 57.18 382.69Q57.57 380.5 59.34 379.38Q61.11 378.24 63.53 378.67Q65.95 379.09 67.25 380.77Q68.55 382.44 68.16 384.62Q67.79 386.75 65.98 387.95Q64.17 389.15 61.75 388.73Z" stroke="#271A58" stroke-opacity="1.000000" stroke-width="0.511614"/>
	<rect id="Frame 2043683109" rx="18.775000" width="105.960831" height="141.447784" transform="translate(25.055664 291.669312) rotate(10.000000)" stroke="#271A58" stroke-opacity="1.000000" stroke-width="0.500000"/>
	<rect id="Frame 2043683105" rx="18.775000" width="105.960831" height="141.447784" transform="translate(136.053223 311.241211) rotate(10.000000)" fill="#99D100" fill-opacity="1.000000"/>
	<path id="?" d="M171.8 390.38Q170.14 392.09 169.61 395.09L180.28 396.97Q180.45 396.02 180.93 395.25Q181.26 394.72 181.75 394.29Q182.93 393.23 185.28 391.85Q187.42 390.57 188.8 389.48Q190.21 388.39 191.38 386.64Q192.56 384.91 192.99 382.46Q193.48 379.7 192.7 377.37Q191.96 375.19 190.12 373.38Q186.3 369.65 179.17 368.39Q172.81 367.27 167.89 368.82Q164.8 369.79 162.38 371.65Q160.96 372.74 159.78 374.13L167.88 380.49Q168.94 379.26 170.27 378.49Q170.9 378.13 171.59 377.87Q172.18 377.65 172.8 377.52Q174.4 377.19 176.13 377.5Q178.46 377.91 179.74 379.22Q180.45 379.94 180.68 380.79Q180.86 381.49 180.72 382.28Q180.67 382.59 180.56 382.88Q180.24 383.77 179.45 384.5Q178.42 385.45 176.41 386.77Q173.48 388.65 171.8 390.38ZM168.75 410.37Q170.13 411.5 172.15 411.85Q174.3 412.24 176.07 411.57Q176.76 411.31 177.39 410.89Q178.53 410.13 179.21 409.08Q179.87 408.06 180.1 406.77Q180.37 405.22 179.96 403.88Q179.65 402.88 178.97 401.99Q178.6 401.52 178.16 401.13Q176.67 399.79 174.36 399.39Q172.01 398.97 170.16 399.74Q169.64 399.96 169.16 400.27Q168.25 400.84 167.64 401.64Q166.77 402.78 166.49 404.37Q166.26 405.66 166.52 406.84Q166.8 408.06 167.61 409.17Q168.11 409.85 168.75 410.37Z" fill="#FFFFFF" fill-opacity="1.000000" fill-rule="evenodd"/>
	<path id="?" d="M169.61 395.09Q170.14 392.09 171.8 390.38Q173.48 388.65 176.41 386.77Q178.42 385.45 179.45 384.5Q180.5 383.53 180.72 382.28Q181.03 380.53 179.74 379.22Q178.46 377.91 176.13 377.5Q173.73 377.07 171.59 377.87Q169.44 378.67 167.88 380.49L159.78 374.13Q162.98 370.36 167.89 368.82Q172.81 367.27 179.17 368.39Q186.3 369.65 190.12 373.38Q193.94 377.12 192.99 382.46Q192.56 384.91 191.38 386.64Q190.21 388.39 188.8 389.48Q187.42 390.57 185.28 391.85Q182.93 393.23 181.75 394.29Q180.57 395.35 180.28 396.97L169.61 395.09ZM172.15 411.85Q169.21 411.34 167.61 409.17Q166.02 407 166.49 404.37Q166.96 401.66 169.16 400.27Q171.36 398.86 174.36 399.39Q177.36 399.91 178.97 401.99Q180.58 404.06 180.1 406.77Q179.63 409.4 177.39 410.89Q175.15 412.38 172.15 411.85Z" stroke="#271A58" stroke-opacity="1.000000" stroke-width="0.511614"/>
	<rect id="Frame 2043683105" rx="18.775000" width="105.960831" height="141.447784" transform="translate(136.053223 311.241211) rotate(10.000000)" stroke="#271A58" stroke-opacity="1.000000" stroke-width="0.500000"/>
	<rect id="Frame 2043683106" rx="18.775000" width="105.960831" height="141.447784" transform="translate(247.051270 330.813232) rotate(10.000000)" fill="#009EE4" fill-opacity="1.000000"/>
	<path id="?" d="M282.8 409.95Q281.14 411.66 280.6 414.66L291.28 416.55Q291.45 415.59 291.93 414.83Q292.26 414.3 292.75 413.86Q293.93 412.8 296.27 411.42Q298.42 410.14 299.8 409.05Q301.2 407.96 302.37 406.22Q303.56 404.48 303.99 402.03Q304.48 399.27 303.7 396.94Q302.96 394.76 301.11 392.95Q297.29 389.22 290.17 387.96Q283.81 386.84 278.89 388.39Q275.79 389.36 273.38 391.22Q271.96 392.31 270.78 393.7L278.87 400.07Q279.93 398.83 281.27 398.06Q281.9 397.7 282.58 397.44Q283.18 397.22 283.8 397.1Q285.4 396.76 287.13 397.07Q289.46 397.48 290.74 398.79Q291.45 399.51 291.67 400.37Q291.86 401.06 291.72 401.85Q291.67 402.16 291.56 402.45Q291.24 403.35 290.45 404.07Q289.42 405.02 287.41 406.34Q284.48 408.22 282.8 409.95ZM279.75 429.94Q281.13 431.07 283.15 431.43Q285.3 431.81 287.07 431.14Q287.76 430.88 288.39 430.46Q289.53 429.7 290.21 428.65Q290.87 427.63 291.1 426.34Q291.37 424.79 290.96 423.45Q290.65 422.45 289.96 421.57Q289.6 421.09 289.16 420.7Q287.67 419.37 285.35 418.96Q283.01 418.54 281.16 419.31Q280.64 419.53 280.16 419.84Q279.25 420.41 278.64 421.21Q277.76 422.35 277.48 423.94Q277.25 425.23 277.52 426.41Q277.8 427.64 278.61 428.74Q279.11 429.42 279.75 429.94Z" fill="#FFFFFF" fill-opacity="1.000000" fill-rule="evenodd"/>
	<path id="?" d="M280.6 414.66Q281.14 411.66 282.8 409.95Q284.48 408.22 287.41 406.34Q289.42 405.02 290.45 404.07Q291.5 403.11 291.72 401.85Q292.03 400.11 290.74 398.79Q289.46 397.48 287.13 397.07Q284.73 396.65 282.58 397.44Q280.43 398.24 278.87 400.07L270.78 393.7Q273.98 389.94 278.89 388.39Q283.81 386.84 290.17 387.96Q297.29 389.22 301.11 392.95Q304.94 396.69 303.99 402.03Q303.56 404.48 302.37 406.22Q301.2 407.96 299.8 409.05Q298.42 410.14 296.27 411.42Q293.93 412.8 292.75 413.86Q291.56 414.92 291.28 416.55L280.6 414.66ZM283.15 431.43Q280.2 430.91 278.61 428.74Q277.02 426.57 277.48 423.94Q277.96 421.23 280.16 419.84Q282.35 418.43 285.35 418.96Q288.35 419.49 289.96 421.57Q291.57 423.63 291.1 426.34Q290.63 428.97 288.39 430.46Q286.15 431.96 283.15 431.43Z" stroke="#271A58" stroke-opacity="1.000000" stroke-width="0.511614"/>
	<rect id="Frame 2043683106" rx="18.775000" width="105.960831" height="141.447784" transform="translate(247.051270 330.813232) rotate(10.000000)" stroke="#271A58" stroke-opacity="1.000000" stroke-width="0.500000"/>
	<rect id="Frame 2043683107" rx="18.775000" width="105.960831" height="141.447784" transform="translate(358.048828 350.385010) rotate(10.000000)" fill="#AD61FF" fill-opacity="1.000000"/>
	<path id="?" d="M394.46 430.12Q393.12 431.5 392.69 433.92L401.3 435.44Q401.44 434.66 401.83 434.05Q402.1 433.62 402.49 433.27Q403.44 432.42 405.33 431.3Q407.06 430.27 408.18 429.39Q409.31 428.51 410.26 427.1Q411.21 425.7 411.56 423.73Q411.95 421.5 411.32 419.62Q410.73 417.86 409.24 416.41Q406.16 413.39 400.41 412.38Q395.28 411.47 391.31 412.72Q388.81 413.51 386.86 415.01Q385.72 415.89 384.77 417.01L391.3 422.14Q392.15 421.14 393.23 420.52Q393.73 420.23 394.29 420.03Q394.77 419.85 395.27 419.75Q396.56 419.48 397.96 419.72Q399.84 420.06 400.87 421.11Q401.44 421.7 401.62 422.38Q401.77 422.95 401.66 423.58Q401.62 423.83 401.53 424.07Q401.27 424.79 400.64 425.37Q399.81 426.14 398.18 427.2Q395.82 428.72 394.46 430.12ZM392 446.24Q393.12 447.16 394.74 447.44Q396.48 447.75 397.91 447.21Q398.46 447 398.97 446.67Q399.89 446.05 400.44 445.2Q400.97 444.38 401.16 443.34Q401.38 442.09 401.05 441.01Q400.8 440.2 400.24 439.49Q399.95 439.11 399.6 438.79Q398.4 437.71 396.53 437.38Q394.63 437.05 393.14 437.67Q392.72 437.84 392.33 438.09Q391.6 438.56 391.1 439.2Q390.4 440.12 390.18 441.4Q389.99 442.44 390.21 443.4Q390.43 444.38 391.08 445.28Q391.49 445.83 392 446.24Z" fill="#FFFFFF" fill-opacity="1.000000" fill-rule="evenodd"/>
	<path id="?" d="M392.69 433.92Q393.12 431.5 394.46 430.12Q395.82 428.72 398.18 427.2Q399.81 426.14 400.64 425.37Q401.48 424.6 401.66 423.58Q401.91 422.17 400.87 421.11Q399.84 420.06 397.96 419.72Q396.02 419.38 394.29 420.03Q392.56 420.67 391.3 422.14L384.77 417.01Q387.35 413.97 391.31 412.72Q395.28 411.47 400.41 412.38Q406.16 413.39 409.24 416.41Q412.32 419.42 411.56 423.73Q411.21 425.7 410.26 427.1Q409.31 428.51 408.18 429.39Q407.06 430.27 405.33 431.3Q403.44 432.42 402.49 433.27Q401.53 434.13 401.3 435.44L392.69 433.92ZM394.74 447.44Q392.37 447.02 391.08 445.28Q389.8 443.53 390.18 441.4Q390.56 439.22 392.33 438.09Q394.1 436.96 396.53 437.38Q398.95 437.81 400.24 439.49Q401.54 441.15 401.16 443.34Q400.78 445.46 398.97 446.67Q397.16 447.87 394.74 447.44Z" stroke="#271A58" stroke-opacity="1.000000" stroke-width="0.511614"/>
	<rect id="Frame 2043683107" rx="18.775000" width="105.960831" height="141.447784" transform="translate(358.048828 350.385010) rotate(10.000000)" stroke="#271A58" stroke-opacity="1.000000" stroke-width="0.500000"/>
	<rect id="Frame 2043683108" rx="18.775000" width="105.960831" height="141.447784" transform="translate(469.046875 369.956909) rotate(10.000000)" fill="#565EEF" fill-opacity="1.000000"/>
	<path id="?" d="M505.46 449.69Q504.12 451.07 503.69 453.49L512.3 455.01Q512.44 454.24 512.82 453.62Q513.09 453.19 513.49 452.84Q514.44 451.99 516.33 450.87Q518.06 449.84 519.18 448.96Q520.31 448.08 521.25 446.68Q522.21 445.27 522.56 443.3Q522.95 441.08 522.32 439.19Q521.73 437.43 520.24 435.98Q517.15 432.96 511.4 431.95Q506.28 431.04 502.31 432.29Q499.81 433.08 497.86 434.58Q496.72 435.46 495.76 436.58L502.29 441.71Q503.15 440.71 504.23 440.1Q504.73 439.81 505.29 439.6Q505.77 439.42 506.27 439.32Q507.56 439.05 508.96 439.3Q510.84 439.63 511.87 440.69Q512.44 441.27 512.62 441.96Q512.77 442.52 512.66 443.15Q512.61 443.4 512.53 443.64Q512.27 444.36 511.63 444.94Q510.81 445.71 509.18 446.78Q506.82 448.29 505.46 449.69ZM503 465.82Q504.11 466.73 505.74 467.01Q507.48 467.32 508.9 466.79Q509.46 466.58 509.97 466.24Q510.89 465.63 511.44 464.77Q511.97 463.95 512.15 462.91Q512.38 461.66 512.04 460.58Q511.8 459.77 511.24 459.06Q510.95 458.68 510.59 458.36Q509.39 457.28 507.52 456.95Q505.63 456.62 504.14 457.24Q503.72 457.42 503.33 457.66Q502.6 458.13 502.1 458.78Q501.4 459.69 501.17 460.97Q500.99 462.02 501.2 462.97Q501.43 463.96 502.08 464.85Q502.49 465.4 503 465.82Z" fill="#FFFFFF" fill-opacity="1.000000" fill-rule="evenodd"/>
	<path id="?" d="M503.69 453.49Q504.12 451.07 505.46 449.69Q506.82 448.29 509.18 446.78Q510.81 445.71 511.63 444.94Q512.48 444.17 512.66 443.15Q512.91 441.75 511.87 440.69Q510.84 439.63 508.96 439.3Q507.02 438.96 505.29 439.6Q503.55 440.24 502.29 441.71L495.76 436.58Q498.35 433.54 502.31 432.29Q506.28 431.04 511.4 431.95Q517.15 432.96 520.24 435.98Q523.32 438.99 522.56 443.3Q522.21 445.27 521.25 446.68Q520.31 448.08 519.18 448.96Q518.06 449.84 516.33 450.87Q514.44 451.99 513.49 452.84Q512.53 453.7 512.3 455.01L503.69 453.49ZM505.74 467.01Q503.37 466.6 502.08 464.85Q500.8 463.1 501.17 460.97Q501.56 458.79 503.33 457.66Q505.1 456.53 507.52 456.95Q509.94 457.38 511.24 459.06Q512.54 460.73 512.15 462.91Q511.78 465.04 509.97 466.24Q508.16 467.44 505.74 467.01Z" stroke="#271A58" stroke-opacity="1.000000" stroke-width="0.511614"/>
	<rect id="Frame 2043683108" rx="18.775000" width="105.960831" height="141.447784" transform="translate(469.046875 369.956909) rotate(10.000000)" stroke="#271A58" stroke-opacity="1.000000" stroke-width="0.500000"/>
</svg>
